# xmcd CD database file
#
# Track frame offsets:
#	150
#	14409
#	28825
#	45889
#	61069
#	76588
#	90965
#	105492
#	122586
#	139373
#	155275
#	169078
#	185102
#	201146
#	216972
#	232781
#	248803
#
# Disc length: 3540 seconds
#
# Revision: 0
# Processed by: cddbd v1.5.1PL0 Copyright (c) Steve Scherf et al.
# Submitted via: NeoAudio 9.9.9
#
DISCID=d00dd211
DTITLE=Dave Sheriff - Singalongadance 4
DYEAR=1900
DGENRE=Country
TTITLE0=on the road again
TTITLE1=sea cruise
TTITLE2=nobody's child
TTITLE3=cowboy rides away
TTITLE4=sweet  caroline
TTITLE5=the chair
TTITLE6=lonestar lonesome tonight
TTITLE7=before the next teardrop falls
TTITLE8=birmingham turnaround
TTITLE9=her in the real world
TTITLE10=the wanderer
TTITLE11=l'll leave this world loving you
TTITLE12=catish john
TTITLE13=today l started loving you again
TTITLE14=speed of hte sound of loneliness
TTITLE15=preciouse time
TTITLE16=somewhere between
EXTD=
EXTT0=
EXTT1=
EXTT2=
EXTT3=
EXTT4=
EXTT5=
EXTT6=
EXTT7=
EXTT8=
EXTT9=
EXTT10=
EXTT11=
EXTT12=
EXTT13=
EXTT14=
EXTT15=
EXTT16=
PLAYORDER=
